<svg xmlns="http://www.w3.org/2000/svg" viewBox="0 0 489 511"><g fill="none" stroke="#808181" stroke-width="2"><path d="M286.69 194.06q-1.3 5.23-1.02 11.06M204.53 237.99l-1.95-.33M186.42 237.61l-5.09.38M140.04 245.02q-.25-.06-.51.08M46.16 351.26l-.3 2.02M45.87 384.23q.63.62.18.42M111.38 476.85q1.17.01 2.21.46M137.24 478.81q.31.05.56.28M175.24 481.76q.36.03.55.29M200.24 483.78l1.06.33M239.32 474.62q-.19.38-.32-.33M176.3 460.74q-.1.45-.71-.12M149.06 458.74q-1.29.45-.59-.07M200.91 396.44l.27-.98M128.07 304.06q.19-.25.66-.26M142.21 303.48q.66.43 1.53.61M214.24 388.25q.09.74-.27.83M178.74 448.19q.66-.02 1.03.22M211.34 450.19q-.51-.65.88-.07M368.76 355.76q.36-.42.34-1.23M347.33 284.88q.13-.16.46.2M336 153.82q.27.25-.52.15M313.02 138.47q-.02-.44.18-.76M314.04 133.32l.05-.79M366.17 213.66l4.76.29M383.97 201.79l-.07-6.54M319.32 35.93q-.09.26-.32.38M348.97 129.31q.11-.22.07-.9" vector-effect="non-scaling-stroke"/></g><path fill="#010202" d="M312.89 149.68c10 .13 19.35.98 29.01 2.02q5.56.6 12.08 2.27 5.96 1.53 11.95 2.93 3.37.79 11.32 4.05c9.36 3.85 16.75 8.98 24.48 16.28 8.38 7.92 17.02 17.31 21.64 27.81q5.14 11.66 10.38 21.93 2.22 4.35 6.1 8.15c4.51 4.42 7.36 10.9 3.48 16.76q-3.01 4.53-7.98 4.71c-4.63.16-6.14-5.74-7.42-9.29a2.32 2.32 0 0 0-2.77-1.46q-.47.12-1.23 1.02-.34.39-.36.91c-.14 4.35 4.11 8.17 7.61 10.23 3.29 1.94 2.6 5.69.48 8.1q-15.91 18.15-39.34 21.46-11.92 1.68-25.53 2.21-11.49.44-19.51-1.77c-20.49-5.63-35.34-22.61-40.02-43.47q-1.12-4.97-.75-10.79c.19-3.01-3.28-3.49-5.17-2q-2.44 1.93-2.7 4.35-.52 4.87.9 10.76 6.47 26.82 28.72 40.75c13.83 8.66 29.74 11.62 45.65 8.77a1.03 1.03 0 0 1 1.21.88q7.84 57.3-24.97 102.74c-3.55 4.93-7.76 9.75-11.83 14.28-5.7 6.37-8.78 12.29-3.16 19.8 3.73 4.99 9.01 9.12 14.59 11.96q7.41 3.77 14.52 7.93c5.61 3.27 9.64 7.95 10.29 14.52.31 3.19-1.3 6.33-4.28 7.56q-2.07.86-5.53.86-21.62.02-39.75-.68-2.39-.09-4.46-1.48-17.74-11.93-36.42-24.53c-1.41-.95-2.85-1.22-4.53-.73-11.46 3.35-22.84 5.47-34.84 5.04q-19.76-.7-48.43-2.55-14.44-.93-29.24-1.47-2.45-.09-.15-.93c12.21-4.5 22.26-13.48 29.89-23.82 19.79-26.8 19.24-61.99-.01-88.72q-12.71-17.65-33.84-25.46c-26.17-9.68-54.41-4.12-75.78 13.57q-2.98 2.46-.24 5.19.28.27.62.45 3.64 1.89 6.85-.66 19.55-15.51 42.88-15.64c50.11-.26 83.61 52.65 60.86 98.07q-12.57 25.07-40.64 34.44-1.56.52-6.83 1.53c-5.06.97-10.05 1.19-15.16 1.9q-1.7.24-1.95 2.03a1.53 1.52-79.7 0 0 1.17 1.7q3.41.79 6.36 1.03 42.09 3.29 86.38 6.45c9.22.66 15.2 6.63 14.04 15.95-.97 7.7-10.03 11.45-17.19 10.88l-118.76-9.39q-5.52-.43-9.88-3.76-48.67-37.23-53.36-97.57c-2.94-37.78 11.78-75.87 39.05-102.36q26.69-25.91 62.85-34.46 20.01-4.73 41.11-5.92 13.37-.75 24.97.66c11.27 1.36 22.75 2.24 33.79 3.6q2.89.35 5.93-.05c14.87-1.98 26.01-11.26 31.22-25.27q1.92-5.18 2.07-12.29.33-15.37.32-28.6c-.01-11.15-2.96-20.89-8.78-30.12-2.22-3.52-4.22-7.15-6.6-10.54q-5.81-8.28-10.83-16.1-3.91-6.08-6.16-13.97c-6.31-22.1-4.46-45.51 2.23-68.06q1.59-5.35 4.34-9.01c3.83-5.09 10.27.21 12.64 4.04q6.69 10.82 13.9 19.2 4.49 5.22 8.71 10.16 10.08 11.83 16.61 28.43 4.31 10.96 5.81 18.83 2.11 11.05 1.94 20.59-.19 11.31-5.06 22.43a.54.54 0 0 0 .49.75Zm-26.2 44.38q-1.3 5.23-1.02 11.06-.5 4.51-1.69 8.38c-3.08 10.05-9.61 18.49-18.93 23.5q-12.27 6.6-25.67 4.65-13.51-1.97-27.63-3.55-3.62-.41-7.22-.11l-1.95-.33q-8.09-1.01-16.16-.05l-5.09.38q-5.27.12-12.08 1.11-15.76 2.27-28.75 5.32-.46.11-.46.6-.25-.06-.51.08-.53-.5-1.01-.24-.27.15-.56.24-11.78 3.6-21.3 8.32-26.25 13-44.57 36.1-20.61 25.99-26.14 59.97-.23 1.43.21 1.77l-.3 2.02q-.25-2.22-.56 1.22-1.23 13.63.08 27.24.13 1.31.49 2.49.63.62.18.42-.34.55-.11 2.11 6.5 44.94 38.96 75.85 8.68 8.27 13.96 11.78 5.26 3.49 12.52 2.46 1.17.01 2.21.46l23.45 1.91q.17.01.24-.14.07-.17-.04-.27.31.05.56.28l36.93 3.2q.32.03.47-.25.08-.17.04-.28.36.03.55.29 2.32.65 2.96.68 9.07.44 17.65 1.29 1.11.12 3.58.17.18.01.23-.16.05-.14.03-.25l1.06.33q1.93.47 3.95.6 9.64.58 19.24 1.39 9.91.82 14.63-8.21.4-.76.2-3.27-.19.38-.32-.33.39-.09.19-.79c-1.96-7.06-7.01-9.11-14.09-9.48q-7-.37-14.41-.88-7.22-.49-14.37-1.09-10-.84-20.02-1.31-.1.45-.71-.12l-26.53-1.88q-1.29.45-.59-.07-5.32-.85-10.23-.89-3-.02-4.92-1.27c-2.14-1.4-2.96-4.33-1.17-6.49 1.6-1.92 3.89-2.98 6.42-2.91 13.12.33 25.53-4.1 36.48-11.84q19.78-13.96 26.05-37.78.2-.75-.19-1.05l.27-.98q-.05.22.06.35.2.23.26-.06 1.99-8.85 1.42-17.3-1.39-20.81-14.35-37.09-6.25-7.85-14.83-13.53-18.27-12.11-40.93-10.76-1.22.08-2.46.3-1.16.21-2.32.39c-10.12 1.59-21.18 5.74-29.25 12.28-4.28 3.46-8.76 5.85-13.78 1.98-2.51-1.95-2.93-6.03-.45-8.15q10.8-9.26 24.18-14.65 8.23-3.31 17.76-4.5 1-.12 1.58-.66.19-.25.66-.26-.09.09-.04.26.04.17.22.17 6.54-.16 13.09-.13.34 0 .21-.62.66.43 1.53.61 1.9.56 6.47 1.05 9 .96 21.04 7.22 30.93 16.07 40.13 49.1 3.34 11.99 2.43 26.63-.01.18.17.21.16.03.26-.05.09.74-.27.83c-.8 1.9-.8 4.09-1.17 6.06q-5.76 31.02-31.88 49.78-1.5 1.09-2.92 2.22a.66.66 0 0 0 .14 1.12q.17.07.6-.07.66-.02 1.03.22l31.57 1.78q-.51-.65.88-.07 1.91.69 3.95.76 14.17.48 28.33 1.19 15.26.76 35.2-5.18c1.41-.42 3.05-.74 4.41.18q18.39 12.56 36.73 24.74 2.77 1.84 5.16 1.94 11.46.48 29.08.47 3.23 0 6.39.29c4.53.42 9.58.14 10.43-5.29.68-4.38-3.06-9.09-6.63-11.37q-5.64-3.59-11.24-6.6-6.04-3.25-10.94-6.28-3.67-2.26-7.84-6.84-4.13-4.54-5.05-8.08-1.88-7.13 2.35-12.51 3.74-4.77 8.63-10.34 19.25-21.94 27.83-50.46.16-.52-.25-.98.36-.42.34-1.23-.04.43.13.57.22.18.29-.1 2.56-10.06 3.98-21.42.31-2.49.73-9.05.3-4.78.07-9.04-.38-7.21-1.14-14.53a1.92 1.91 81.1 0 0-2.3-1.68q-2.64.55-5.35.64-15.54.51-28-4.68-17.91-7.45-29.16-23.08-7.62-10.6-11.43-25.46c-.99-3.83-1.33-8.18-.57-12.02q.49-2.52 3.05-4.67c3.66-3.07 9.61-1.7 9.71 3.74q.48 26.91 21.5 43.09 3.61 2.78 9.13 5.45 4.12 1.99 7.59 2.59.13-.16.46.2.5.51.96.61 3.24.68 6.5 1.36 3.88.8 15.23-.18 5.91-.51 12.36-.9 8.53-.51 12.36-1.29 21.34-4.37 34.95-21.5a2.15 2.14-56.4 0 0-.64-3.21q-5.45-3.01-8.01-8.52c-1.86-4 .75-8.79 5.56-7.66 4.45 1.05 3.55 6.54 6.21 9.05q2.43 2.3 5.18.27 4.56-3.36 4.02-7.87-.23-1.96-1.19-4.06-1.06-2.36-2.52-3.78-2.64-2.58-4.28-5.01c-5.24-7.79-9.85-17.5-13.67-26.51q-1.58-3.73-3.88-7.46-2.35-3.81-5.2-6.98-7.33-8.17-14.86-15.11-6.63-6.11-14.61-10.39-4.26-2.28-9.01-4.07c-8.53-3.21-17.47-4.81-25.99-6.88q-3.41-.83-11.26-1.17.27.25-.52.15-1.44-.58-2.98-.7-10.75-.82-21.01-1.44a2.04 2.04 0 0 1-1.79-2.75q1.69-4.58 3.27-8.83.33-.89.05-1.78-.02-.44.18-.76-.01.15.01.29.03.23.14.02 1.1-2.06.69-4.7l.05-.79q.02.34.19.44a.19.19 0 0 0 .29-.15q.91-13.95-1.99-28.29-1.28-6.3-4.08-13.46-3.63-9.27-5.87-13.69-5.44-10.77-18.48-25.3-8.5-9.47-15.3-20.59-2.39-3.92-6.28-5.6a2.33 2.32 28.3 0 0-2.87.86q-1.6 2.45-2.52 5.1-5.55 16.01-7.02 33.67-1.19 14.27 2.05 29.79 1.69 8.12 4.89 15.06 2.38 5.18 5.75 9.77 8.66 11.83 16.8 25.9c3.25 5.63 5.5 12.31 6.06 18.61q1.09 12.32-.06 29.19-.02.29.26.38.27.09.78-.16Z"/><path fill="#fff" d="m314.09 132.53-.05.79q-1.24 1.85-.84 4.39-.2.32-.18.76-.97 2.01-1.57 4.11-.61 2.14-1.51 3.7-1.19 2.08-.78 5.15a.6.6 0 0 0 .72.51q.68-.15 1.12.39.38.46.97.46l8.94.07q.53 0 .88.41.64.77 1.21.74 6.22-.4 12.48-.04.79.1.52-.15c.76.46 1.51.94 2.4.95q2.34.02 4.68.18a1.3 1.27-21.6 0 1 .78.33l.36.32q.4.36.93.31 2.1-.2 4.11.31 5.78 1.5 11.52 2.67 2.28.46 4.54 1.24 1.68.59 3.27.87 1.82.32 3.57 1.49a1.52 1.51 61.2 0 0 .88.26q1.11-.03 1.92.62a2.14 2.13-24.7 0 0 1.28.47q1.59.06 2.63 1.32.42.52 1.08.65l.86.17q.49.1.92.35 4.02 2.38 7.84 4.78c1.54.97 2.47 2.6 3.94 3.43q1.74.98 3.04 2.27 6.72 6.68 13.87 13.83 1.1 1.1 1.78 2.43.77 1.53 2.18 2.65.47.38.66.96c.45 1.4 1.61 2.13 2.28 3.54q1.74 3.7 3.6 7.25.13.25.13.52 0 .28.02.55.03.46.23.85 4.36 8.34 8.33 16.68.39.81 1.91 2.88c1.13 1.54 1.5 3.54 3.1 4.96 1.72 1.54 3.69 3.3 4.76 5.4q.49.97 1.29 1.72a1.32 1.31 21.3 0 1 .41.93l.04 2.07a1.2 1.19 19.2 0 0 .46.94q.94.73.6 1.82-.88 2.78-3.45 5.29c-1.72 1.67-4.62 1.87-5.73-.62-1.25-2.8-1.61-6.04-4.14-8.05q-.39-.32-.9-.31l-4.03.05q-.47 0-.8.33l-2.45 2.47q-.36.37-.45.87-.24 1.42-.15 3.17.05 1.09.68 2.02 2.75 4.06 6.03 6.97c1.13 1 2.73 1.19 3.41 2.62q.23.47-.12.86-8.26 9.14-13.6 12.62-16.86 11-37.94 10.16c-1.9-.08-3.17.95-5.03.94q-3.54-.02-7.02.05c-1.71.03-3.36.77-5.03.39-2.26-.51-4.55-.39-6.83-.54-2.12-.13-4.39-1.06-6.86-1q-.33-.36-.46-.2-8.69-3.65-12.46-5.76-3.32-1.85-7.09-5.48c-.62-.61-1.57-.74-1.86-1.64a1.23 1.23 0 0 0-.62-.72q-.3-.15-.54-.4-5.36-5.59-9.5-13.11-.88-1.59-1.49-3.56-.56-1.79-1.59-3.53-.27-.44-.25-.96.05-2.22-.66-4.26-2.13-6.06-1.38-12.57a2 1.99 31.8 0 0-.31-1.31c-1.03-1.61-4.08-4.83-6.38-4.13q-3.97 1.2-6.75 4.95-1.55 2.1-1.39 4.94.14 2.63.09 5.25-.01.68.36 1.24.82 1.25.71 2.92-.04.49.24.89.84 1.22.7 2.82-.04.51.19.97.87 1.74 1.34 3.86.37 1.71 1.19 3.25 1.94 3.66 3.73 7.4c.85 1.76 2.13 2.99 2.92 4.79q.94 2.14 2.32 3.4c1.51 1.38 2.33 3.14 3.69 4.66q2.51 2.82 5.05 4.92 3.7 3.04 8.47 6.2c3.98 2.63 8.13 4.41 12.21 6.67q.52.28 1.11.27.94-.01 1.57.55.39.35.91.39 2.64.2 5.35 1.37 1.75.75 3.84.73c3.37-.02 6.41 1.1 9.6 1.05 2.63-.03 6.86.7 9.02-.91a1.63 1.62 66.3 0 1 2.57 1.01q.11.61.52 1.11.41.5.44 1.15.15 4.96-.08 9.8c-.12 2.54.95 4.73.71 7.28q-.4 4.28-.53 8.98c-.16 5.54-1.3 10.81-2.12 16.28q-.43 2.87-1.68 5.62-.42.93-.4 3.27.02.81-.34 1.23-3.53 11.21-5.87 15.89-1.96 3.95-3.03 6.29-1.07 2.37-2.34 4.68-1.3 2.37-2.55 4.6-2.41 4.32-5.89 9.07c-.92 1.26-2.08 2.32-2.84 3.63-1.13 1.98-2.95 3.25-4.16 5.2-.99 1.59-2.33 2.83-3.62 4.17q-1.03 1.07-2.6 3.19-1.53 2.07-3.42 3.85c-1.46 1.37-1.87 2.79-2.51 4.55q-.63 1.75-.69 3.87-.07 2.5-.11 5-.01.5.25.92.91 1.53 1.7 3.26c.62 1.35 1.85 1.95 2.55 3.2q1.88 3.4 4.97 5.41 1.48.96 2.77 2.09c1.6 1.4 3.5 1.91 5.08 3.16q1.27 1.01 2.71 1.65 2.91 1.3 5.35 2.81 2.52 1.56 5.08 2.88 2.81 1.44 5.45 3.39 3.11 2.31 5.28 5.59.9 1.38.86 3.04-.05 1.59-.13 2.99a1.51 1.47 67.7 0 1-.36.89c-3.04 3.48-6.73 3.48-10.95 3.15q-2.23-.17-4.45-.7-2.17-.52-4.43-.46-9.26.23-23.38.23c-2.76.01-5.47-1.34-7.67-2.81q-14.66-9.77-28.15-18.8-1.34-.9-3.45-2.7c-1.72-1.48-5.27-3.47-7.27-2.94q-7.78 2.09-15.19 3.77-1.87.43-3.38.34-1.78-.1-3.32.32-2.33.63-4.77.65-10.14.09-20.28.15-2 .01-3.38-.9a1.64 1.63 61.6 0 0-.9-.27l-17.5.06q-1.39-.58-.88.07-.55-1.33-2.09-1.19-4.74.43-12.39.12a.94.93 77.5 0 1-.8-.52l-.12-.25q-.2-.4-.63-.38l-15.54.44q-.37-.24-1.03-.22.56-2 2.36-2.26.66-.1 1.04-.64 1.31-1.84 3.04-2.9 1.83-1.12 3.43-2.69 4.37-4.3 8.45-8.39 1.35-1.35 2.53-3.36 1.05-1.78 2.33-3.51c1-1.35 1.54-2.96 2.51-4.27 1.38-1.85 2.37-3.84 3.4-5.89q.75-1.48 1.21-3.01 1.44-4.81 3.19-9.51c.58-1.56.54-2.97 1.13-4.47.95-2.43.46-5.52.61-8.21q.36-.09.27-.83.28-.47.33-1.01.5-5.68.27-10.5c-.06-1.15-.69-1.94-.78-3.02q-.2-2.34-.27-4.82-.07-2.22-.77-4.68-1.29-4.46-2.59-8.74-1.72-5.68-4.46-10.24-2.39-3.99-5.02-8.19c-.82-1.31-2.01-2.24-2.73-3.53q-.89-1.62-2.21-2.89-3.55-3.42-6.85-6.91-3.14-3.33-7-5.88-6.73-4.46-12.85-7.52-1.99-.99-4.19-1.84-2.08-.8-4.18-1.42-4.08-1.19-8.31-2.28-2.07-.54-4.37-.6-2.24-.05-4.52-.09-.87-.18-1.53-.61-6.1-.51-12.46-.33-.37.01-1.02.65-.47.01-.66.26-2.04.03-4.05.1-1.77.07-3.38.58-4.12 1.3-8.23 2.49-4.29 1.24-8.9 3.49-.73.36-1.43.73-7.9 4.19-15.19 9.66-1.82 1.37-3.58 3.14c-1.85 1.87-1.4 4.6-.28 6.71q.62 1.18 1.93 1.94c2.79 1.64 5.51 2.71 8.58 1.18q3.98-1.98 7.54-4.88c1.6-1.3 3.42-2.07 5.12-3.22q1.49-1.01 3.27-1.77 11.17-4.77 20.54-6.03 5.79-.77 14.67-.26 1.35.08 2.55.54 1.69.65 3.58.46a1.29 1.26-26.1 0 1 1 .33l.45.4q.43.4 1.02.32 1.58-.22 2.82.62.43.28.94.27l.88-.03a1.28 1.28 0 0 1 .98.43q.47.52 1.16.6.93.11 1.86.48 8.61 3.51 14.36 8.13.83.66 1.63 1.16 1.15.7 2.06 1.58c2.8 2.73 5.99 5.53 8.29 8.71q1.3 1.79 2.61 3.57 2.03 2.76 3.37 5.63 1.09 2.34 2.32 4.64 1.22 2.26 1.9 4.61.82 2.85 1.95 5.69 1.04 2.64.79 5.43-.05.57.21 1.08c.37.73.64.89.67 1.82q.27 7.16.02 14.1-.03.87-.74 3.39-.47 1.67-.18 3.58l-.27.98q-1.11 3.03-2.11 6.06-1.12 3.4-2.43 6.06-1.6 3.23-3.27 6.54c-.61 1.21-1.62 1.93-2.05 3.2a2.05 2-11.5 0 1-.64.94q-.93.78-1.26 1.84-.15.48-.5.84-4.52 4.8-9.16 9.07-4.79 4.41-14.94 9.73-1.1.57-4.94 2.07-3.5 1.37-7.19 2.36-3.89 1.04-7 1.02-2.92-.02-5.88-.05c-4.08-.04-7.37 1.87-9.22 5.57q-.25.49-.12 1.03.59 2.59 2.63 4.41c.91.81 1.93.72 2.98 1.25q1.12.57 2.44.59 4.87.07 10.22-.3-.7.52.59.07 1.28.07 2.07.69.38.3.87.31l8.65.12q.58.01 1.03.37c.61.48 1.18.72 1.97.72q5.93.05 11.94-.33.61.57.71.12 1.14.05 1.96.83.36.33.84.33l8.85-.07a1.17 1.15 69.8 0 1 .89.42l.24.28q.36.42.92.42l10.95-.11a1.17 1.15 69.3 0 1 .88.41l.27.32q.36.43.92.42l13.59-.19q.5-.01.92.28 1.35.94 3.21.81 4.45-.32 7.81.09 2.67.34 6.37 2.77.89.58 1.34 1.46.5.96 1.33 1.78.35.34.38.83.09 1.53 1.03 2.47.13.71.32.33.02 1.23-.41 1.97-.43.75-.45.79-2.73 6.14-8.95 7.42-5.11 1.06-11.39.08-4.23-.67-8.15-.71-4.34-.04-8.67-.06l-1.06-.33q-.68-.77-1.5-.72-3.89.24-7.81.01-.53-.03-.86-.44l-.19-.23q-.36-.43-.92-.42l-13.17.07q-.19-.26-.55-.29-.74-.84-1.75-.78-5.04.32-8.32.09c-.74-.05-.95-.37-1.48-.77q-.41-.31-.93-.28-4.92.22-10.25 0c-.92-.04-1.24-.33-1.96-.78q-.47-.29-1.01-.28l-11.74.13q-.25-.23-.56-.28-.61-.74-1.49-.71-4.37.13-7.49-.08-.49-.03-.91-.29-.97-.62-1.6-.65-2.84-.1-12.16.23-1.04-.45-2.21-.46-2.88-.95-6.16-.84-.51.02-.94-.25c-1.3-.81-2.74-.67-4.13-1.54q-1.77-1.11-3.61-2.32c-1.85-1.21-3.04-2.96-4.8-4.15q-1.93-1.31-3.61-2.98-4.2-4.18-8.47-8.48-2.68-2.7-5.18-5.89-2.46-3.16-4.58-6.06-4.46-6.09-9.11-13.93c-.83-1.4-1-2.82-2.04-4-.83-.96-.83-2.18-1.37-3.28q-5.52-11.09-8.25-24.38c-.37-1.77-1.06-3.28-1.21-5.09q-.14-1.62-.66-3.12-.64-1.86-.46-4.29.05-.75-.75-1.6.45.2-.18-.42l-.01-30.95.3-2.02c1.05-1.21.49-3.02 1-4.53q.44-1.29.66-2.75.55-3.59 1.64-7.02 1.18-3.73 2.17-7.55 1.04-4.03 2.75-7.5c.5-1 .49-1.81.99-2.86q.95-1.99 1.91-3.93c.63-1.28.64-2.44 1.52-3.64q.75-1.02 1.42-2.36.92-1.89 2.05-3.66 1.16-1.81 2.12-3.59 2.16-4.03 5.26-7.33.29-.3.29-.73a1.06 1.04-18.6 0 1 .41-.81q.96-.74 1.45-1.83c.86-1.9 2.93-3.57 4.39-5.05.68-.7.64-1.6 1.34-2.32q4.36-4.49 9.12-9.33c1.86-1.88 4.01-2.9 5.78-4.7 1.39-1.41 2.96-1.96 4.38-3.28q.96-.9 2.14-1.72 6.03-4.22 12.21-7.65 1.83-1.01 3.46-2.04c2.6-1.65 5.7-2.54 8.53-3.83q4.61-2.1 9.59-3.39 1.94-.5 6.79-2.76.26-.14.51-.08 3.91-.49 7.7-1.72c1.52-.49 2.82-.37 4.27-.68q6.36-1.37 12.22-2.25.1-.01 8.58-.98 4.2-.48 8.52-1.4l5.09-.38 16.16.05 1.95.33q4.92 1.23 10.52 1 .53-.03.9.34l.19.19q.46.45 1.09.39 3.62-.36 6.84.58c1.71.5 3.13.43 4.85.38q1.51-.03 2.93.46 1.97.69 4.41.61.58-.02 1.1.23c2.81 1.39 7.1.76 10.25.82q2.43.04 5.55-.88 2.84-.83 5.59-1.68c4.5-1.38 9.09-3.67 12.62-6.61q4.04-3.37 6.7-7.16 4.13-5.89 6.9-13.15c1.08-2.85.95-5.43.7-8.39q-.28-5.83 1.02-11.06.19-12.97.19-26.38 0-2.24-.57-4.12c-.62-2.03-.21-3.86-.94-5.9q-.94-2.62-1.79-5.25-.73-2.27-2.12-4.74-7.32-13-16.53-25.79-3.98-5.52-6.15-9.9-2.54-5.1-4.27-10.55-.58-1.8-1.02-3.92-.42-2.02-.96-3.92-.55-1.95-.62-3.65-.08-1.92-.06-3.85 0-.56-.35-.99-.67-.82-.65-1.92.18-10.61 0-19.46-.02-1.04.7-1.88.4-.47.41-1.1c.04-2.33-.39-4.72.27-7.02q.43-1.51.72-3.04c.31-1.61 1.05-2.79.91-4.55a2.3 2.3 0 0 1 .24-1.25c.77-1.56.55-3.06 1.18-4.63q1.1-2.74 1.62-5.55.29-1.58 1.16-3.21l1.4-2.58q.25-.45.33-.97l.13-.75a.38.38 0 0 1 .4-.32l2.8.15q.53.02.93.38 2.89 2.6 4.77 5.57 1.82 2.88 3.85 5.6 2.03 2.72 3.97 5.51.36.52.5 1 .14.5.53.85 2.72 2.48 5.03 5.12.37.43.47.99.09.52.46.89 2.38 2.34 4.65 4.63c.84.85.83 1.95 1.72 2.68q1.71 1.41 2.8 3.15.89 1.43 2.08 2.78c1.49 1.7 2.11 3.87 3.48 5.67q3.06 4.04 5.06 8.72 2.69 6.33 2.72 6.39 2.67 5.8 4.58 11.83c.52 1.64.42 3.34.87 4.92q1.57 5.52 1.84 11.26c.03.7.62 1.56.63 2.04q.2 7.78.03 15.53Zm52.08 81.13 4.76.29 9.62 2.69a1.51 1.44-47.8 0 0 1.01-.07c1.48-.65 2.95-.7 4.16-1.91 2.36-2.36 2.81-4.68 1.16-7.77q-1.38-2.58-2.91-5.1l-.07-6.54q-.08-2.07-.66-4.11-.58-2.09-1.85-3.23c-1.44-1.31-3.02-3.41-4.81-4.15q-1.11-.45-2.23-1.08-1.31-.73-2.77-.63-3.07.21-6.14.06c-3.28-.16-6.42 1.58-8.73 3.81-1.59 1.55-2.26 3.55-3.32 5.41q-1.27 2.24-1.3 4.59-.04 2.58-.1 5.15-.06 2.12 1.21 4.08 1.93 2.99 3.68 5.15.99 1.21 2.55 1.89 1.33.58 2.59 1.23 1.05.54 2.03.49 1.04-.05 2.12-.25Z"/><path fill="#010202" d="M336.4 66.06c.51.5.35 1.6.61 2.39q5.68 17.87 11.47 32.6 4.32 10.99 3.81 22.04-.43 9.23-1.23 19.31-.24 2.99-1.03 5.83a1.33 1.32-72.5 0 1-1.72.9c-9.29-3.32-18.39-3.03-28.08-2.81a1.35 1.34-79.2 0 1-1.27-1.87q7.64-17.99 4.09-36.93c-1.01-5.44-3.19-11.33-5.19-16.63q-3.55-9.35-10.42-19.11c-.81-1.14-1.27-3.05-1.23-4.42q.26-11.65 3.31-20.84 2.52-7.58 9.35-14.86.38-.4.92-.28 4.53 1.01 6.13 5.52 4.96 14.02 10 28.41.15.43.48.75Zm-17.08-30.13q-.09.26-.32.38-.13.03-.26.03-.17.01-.28.13-6.36 7.59-8.26 17.62-1.28 6.73-1.64 13.1c-.05.96.31 2.37.77 3.02q11.51 16.25 15.91 35.79 3.66 16.22-1.28 32.59-.52 1.73-1.42 3.2a1.49 1.49 0 0 0 1.34 2.26q7.44-.32 14.59.06c2.72.14 5.33.98 7.97 1.61a1.41 1.41 0 0 0 1.7-1.1q1.44-7.28.83-15.31.11-.22.07-.9.12.09.22.15.17.09.19-.1 1.4-12.17-2-21.78-10.58-29.88-23.4-67.35-.76-2.21-2.18-4.21a1.32 1.31-27.2 0 0-1.51-.48q-1.39.48-1.04 1.29Z"/><path fill="#fff" d="M349.04 128.41q.04.68-.07.9-1.35 5.54-.75 11.44.14 1.4-.7 2.35-.34.39-.45.9l-.16.77q-.15.73-.88.57-.61-.13-.95-.64-.35-.53-1-.5-1.96.1-3.48-.92-.52-.35-1.15-.31-8.11.54-16.3.09-.17-.01-.31-.08-.27-.14-.21-.31.14-.39.53-.54.36-.14.54-.47.22-.4.19-.85c-.08-1.25.62-1.93.91-3.05q.75-2.8 1.54-5.42c.79-2.61.26-5.05.94-7.53.76-2.78.82-5.84.43-8.66q-1.64-11.88-4.51-20.33-3.62-10.63-10.22-21.6c-.78-1.31-1.56-2.19-2.55-3.3q-.43-.49-.44-1.14-.01-1.17-.75-2.06-.45-.54-.11-1.15l.48-.83q.23-.41.19-.87-.27-3.54.37-6.8 1.2-6.1 2.97-11.18 1.4-4.03 5.44-9.33.35-.46.42-1.25.23-.12.32-.38l2.02.08q.52.02.68.51.85 2.57 1.91 5.04 1.3 3.05 1.94 4.97 2.46 7.49 4.93 14.87.65 1.92 1.43 3.69c.86 1.94.97 3.86 1.84 5.67.41.88.8 1.54.93 2.53.3 2.25 1.4 4.05 2.11 6.19q3.7 11.1 7.35 20.02 5.8 14.21 4.58 28.91Z"/><path fill="#010202" d="m383.9 195.25.07 6.54q.56 2.15 1.59 4.29 1.39 2.89 1.32 4.27c-.17 3.39-3.66 6.26-7 5.26q-5.23-1.55-8.95-1.66l-4.76-.29q-11.1-2.34-13.05-11.71c-2.56-12.32 6.91-22.11 19.3-18.78q9.85 2.66 11.26 12.89.01.06-.05.07.01-.43.27-.88Zm-28.82 2.64q.31 9.75 8.95 12.75 2.22.77 4.84.46 4.71-.55 9.81 1.56c3.07 1.28 7.36-.81 5.19-4.46-1.84-3.11-3.08-6-2.71-9.57.8-7.76-5.47-13.64-13.06-13.74-6.74-.08-13.24 5.82-13.02 13Z"/></svg>